<svg width="11" height="17" viewBox="0 0 11 17" fill="none" xmlns="http://www.w3.org/2000/svg">
<path d="M8.11364 0H1.93182C0.865455 0 0 0.865455 0 1.93182V15.0682C0 16.1345 0.865455 17 1.93182 17H8.11364C9.18 17 10.0455 16.1345 10.0455 15.0682V1.93182C10.0455 0.865455 9.18 0 8.11364 0ZM5.02273 16.2273C4.38136 16.2273 3.86364 15.7095 3.86364 15.0682C3.86364 14.4268 4.38136 13.9091 5.02273 13.9091C5.66409 13.9091 6.18182 14.4268 6.18182 15.0682C6.18182 15.7095 5.66409 16.2273 5.02273 16.2273ZM8.5 13.1364H1.54545V2.31818H8.5V13.1364Z" fill="#023366" fill-opacity="0.25"/>
</svg>
