<svg width="51" height="36" viewBox="0 0 51 36" fill="none" xmlns="http://www.w3.org/2000/svg">
<g clip-path="url(#clip0)">
<path d="M1 21.9217C1 15.8105 8.4085 10.8559 17.5475 10.8559C26.6865 10.8559 34.095 15.8105 34.095 21.9217C34.095 28.0329 26.6865 32.9857 17.5475 32.9857C15.9039 32.9882 14.2643 32.8235 12.6545 32.4941C12.444 32.4505 12.2417 32.3959 12.0354 32.3476L7.35006 35.6641C6.23116 36.4564 4.79816 35.4084 4.99561 33.9411L5.5869 29.5548C2.75059 27.5689 1 24.8843 1 21.9217Z" fill="#023366"/>
<path d="M50.9999 13.7644C50.9999 6.1624 41.8192 0 30.4943 0C19.1694 0 9.98779 6.1624 9.98779 13.7644C9.98779 21.3665 19.1685 27.5289 30.4943 27.5289C32.5314 27.532 34.5633 27.3269 36.5581 26.917C36.8181 26.864 37.0691 26.7953 37.3249 26.7345L43.1307 30.8608C44.5182 31.8467 46.2932 30.5424 46.0486 28.7175L45.3158 23.2617C48.8301 20.7905 50.9999 17.4503 50.9999 13.7644Z" fill="#FABA01"/>
<path d="M24.4799 15.5995C25.3316 15.5995 26.0221 14.9148 26.0221 14.0702C26.0221 13.2255 25.3316 12.5408 24.4799 12.5408C23.6282 12.5408 22.9377 13.2255 22.9377 14.0702C22.9377 14.9148 23.6282 15.5995 24.4799 15.5995Z" fill="white"/>
<path d="M30.4938 15.5995C31.3455 15.5995 32.036 14.9148 32.036 14.0702C32.036 13.2255 31.3455 12.5408 30.4938 12.5408C29.6421 12.5408 28.9517 13.2255 28.9517 14.0702C28.9517 14.9148 29.6421 15.5995 30.4938 15.5995Z" fill="white"/>
<path d="M36.1699 15.5995C37.0216 15.5995 37.712 14.9148 37.712 14.0702C37.712 13.2255 37.0216 12.5408 36.1699 12.5408C35.3181 12.5408 34.6277 13.2255 34.6277 14.0702C34.6277 14.9148 35.3181 15.5995 36.1699 15.5995Z" fill="white"/>
</g>
<defs>
<clipPath id="clip0">
<rect width="50" height="35.9375" fill="white" transform="translate(1)"/>
</clipPath>
</defs>
</svg>
