<svg width="17" height="17" viewBox="0 0 17 17" fill="none" xmlns="http://www.w3.org/2000/svg">
<path d="M0 8.44445C0 8.99673 0.447715 9.44444 1 9.44444H6.55556C7.10784 9.44444 7.55556 8.99673 7.55556 8.44444V0.999999C7.55556 0.447714 7.10784 0 6.55556 0H1C0.447715 0 0 0.447715 0 1V8.44445ZM0 16C0 16.5523 0.447715 17 1 17H6.55556C7.10784 17 7.55556 16.5523 7.55556 16V12.3333C7.55556 11.781 7.10784 11.3333 6.55556 11.3333H1C0.447715 11.3333 0 11.781 0 12.3333V16ZM9.44444 16C9.44444 16.5523 9.89216 17 10.4444 17H16C16.5523 17 17 16.5523 17 16V8.55555C17 8.00327 16.5523 7.55556 16 7.55556H10.4444C9.89216 7.55556 9.44444 8.00327 9.44444 8.55556V16ZM10.4444 0C9.89216 0 9.44444 0.447715 9.44444 1V4.66667C9.44444 5.21895 9.89216 5.66667 10.4444 5.66667H16C16.5523 5.66667 17 5.21895 17 4.66667V0.999999C17 0.447715 16.5523 0 16 0H10.4444Z" fill="#023366"/>
</svg>
